<svg class="logo" version="1.1" xmlns="http://www.w3.org/2000/svg" xmlns:xlink="http://www.w3.org/1999/xlink" x="0px" y="0px" width="70px" height="102px" viewBox="0 0 70.9 102.7" style="" xml:space="preserve">
<style>
.callida-logo
{
fill:none;
stroke: #000;
stroke-width: 4;
stroke-miterlimit: 10;
position: absolute;
}
</style>
<path class="callida-logo path-0" d="M68.5,73.7v26.6H24.6c-12.7,0-22.7-9.9-22.7-22.6V24.9c0-12.7,10-23,22.7-23H70"></path>
<path class="callida-logo path-1" d="M55.3,15H24.7c-5.3,0-9.6,4.3-9.6,9.6v52.7c0,5.3,4.3,9.6,9.6,9.6h30.9"></path>
<path class="callida-logo path-2" d="M8.4,8.7L28.3,28.6"></path>
<path class="callida-logo path-3" d="M8.4,93.5L28.3,73.7"></path>
<path class="callida-logo path-4" d="M68.5,73.7L55.3,86.9L68.5,100.2"></path>
<path class="callida-logo path-5" d="M68.5,1.9L55.3,15.1L68.5,28.3"></path>
<path class="callida-logo path-6" d="M68.5,1.9v26.4H28.3v45.4H70"></path>
</svg>