<!--?xml version="1.0" encoding="utf-8"?-->
<!-- Generator: Adobe Illustrator 19.1.0, SVG Export Plug-In . SVG Version: 6.00 Build 0) @author: Vijay Krishnamoorthy  -->
<svg version="1.1" id="Layer_1" xmlns="http://www.w3.org/2000/svg" xmlns:xlink="http://www.w3.org/1999/xlink" x="0px" y="0px" viewBox="-99 226.3 491.5 66.1" style="" xml:space="preserve">
    <style>
        .fill {
            fill: none;
            stroke-width: 1;
            stroke: url(#gradient-vertical2) grey;
        }

    </style>
    <g class="fill">
        <path class="jDMaZdPx_0" d="M-53.9,290.5h-26.3c-2.5,0-4.7-0.5-6.9-1.4c-4.4-1.9-7.5-5.1-9.5-9.5c-0.9-2.2-1.4-4.5-1.4-6.9v-18.9
		c0-2.4,0.5-4.7,1.4-6.9c1.9-4.4,5.1-7.5,9.5-9.5c2.1-0.9,4.4-1.4,6.9-1.4h26.3c2.5,0,4.7,0.5,6.9,1.4c4.4,1.9,7.5,5.1,9.5,9.5
		c0.9,2.2,1.4,4.5,1.4,6.9h-12.2c0-1.5-0.5-2.9-1.6-3.9c-1.1-1.1-2.4-1.6-3.9-1.6h-26.3c-1.5,0-2.9,0.5-3.9,1.6
		c-1.1,1.1-1.6,2.3-1.6,3.9v18.9c0,1.5,0.5,2.9,1.6,3.9c1.1,1.1,2.4,1.6,3.9,1.6h26.3c1.5,0,2.9-0.5,3.9-1.6
		c1.1-1.1,1.6-2.4,1.6-3.9h12.2c0,2.5-0.5,4.7-1.4,6.9c-1.9,4.4-5.1,7.5-9.5,9.5C-49.1,290.1-51.4,290.5-53.9,290.5z"></path>
        <path class="jDMaZdPx_1" d="M34.4,290.5h-14l-21.9-39.1l-21.9,39.1h-14l30.6-54.6H3.8L34.4,290.5z"></path>
        <path class="jDMaZdPx_2" d="M80.7,290.5H37.3V236h12.2v42.3h31.2V290.5z"></path>
        <path class="jDMaZdPx_3" d="M129.4,290.5H86V236h12.2v42.3h31.2V290.5z"></path>
        <path class="jDMaZdPx_4" d="M146.8,290.5h-12.2v-54.6h12.2V290.5z"></path>
        <path class="jDMaZdPx_5" d="M190.3,290.5h-34.7v-54.4h34.7c3.8,0,7.3,0.7,10.6,2.2c6.7,3,11.5,7.8,14.5,14.5c1.4,3.3,2.2,6.8,2.2,10.6
		c0,3.8-0.7,7.3-2.2,10.6c-3,6.7-7.8,11.5-14.5,14.5C197.5,289.9,194,290.5,190.3,290.5z M190.3,278.3c2.7,0,5.3-0.7,7.5-2.1
		c2.3-1.4,4.1-3.1,5.4-5.4c1.4-2.3,2.1-4.8,2.1-7.5s-0.7-5.3-2.1-7.5c-1.4-2.3-3.1-4.1-5.4-5.4c-2.3-1.4-4.8-2.1-7.5-2.1h-22.5v29.9
		L190.3,278.3L190.3,278.3z"></path>
        <path class="jDMaZdPx_6" d="M285.5,290.5h-14l-21.9-39.1l-21.9,39.1h-14l30.6-54.6h10.7L285.5,290.5z"></path>
        <path class="jDMaZdPx_7" d="M297.5,227.3v5.7c0,3-0.3,5.4-1,7.3c-0.7,1.9-1.9,3.5-3.7,4.9c-1.7,1.3-3.7,2.2-5.9,2.7v-4.6
		c1.5-0.9,2.5-2.1,2.6-3.5h-2.6v-12.4L297.5,227.3L297.5,227.3z"></path>
        <path class="jDMaZdPx_8" d="M303.7,258.3v-11c9.2-2.7,15.3-6.3,18.1-10.9h9.1v44.4h14.7v9.8h-43.2v-9.8h16.2v-30.5
		C312.3,254.1,307.3,256.8,303.7,258.3z"></path>
        <path class="jDMaZdPx_9" d="M381.7,261.7c6.6,2.7,9.9,7.1,9.9,13.1c0,4.8-1.9,8.7-5.7,11.8c-3.8,3.1-9.2,4.6-16.3,4.6
		c-6.6,0-11.6-1.4-15.1-4.3c-3.5-2.9-5.3-6.5-5.3-10.9c0-5.6,3.2-9.5,9.5-11.9c-5.1-2.9-7.7-6.9-7.7-12.1c0-4.3,1.7-8.1,5.1-11.1
		c3.4-3.1,8.2-4.6,14.3-4.6c5.9,0,10.6,1.3,14,4c3.4,2.6,5.2,6,5.2,10.1C389.7,255.6,387.1,259.4,381.7,261.7z M367.2,268.3
		c-4.5,1.3-6.7,3.8-6.7,7.4c0,2.2,0.9,3.9,2.6,5.2c1.7,1.3,4.1,1.9,7.3,1.9c2.7,0,4.9-0.5,6.6-1.5s2.5-2.4,2.5-4.3
		c0-1.5-0.6-2.9-1.8-4.1C376.5,271.7,373,270.1,367.2,268.3z M373.5,258.3c3.6-1.1,5.4-3.4,5.4-6.8c0-2.1-0.7-3.8-2.2-5.1
		c-1.5-1.3-3.7-1.9-6.4-1.9c-2.3,0-4.1,0.5-5.3,1.6c-1.3,1.1-1.9,2.5-1.9,4.2c0,1.6,0.6,3,1.9,4.1
		C366.1,255.5,369,256.8,373.5,258.3z"></path>
    </g>
    <linearGradient id="gradient-horizontal">
        <stop offset="0%" stop-color="var(--color-stop-1)" />
        <stop offset="100%" stop-color="var(--color-stop-2)" />
    </linearGradient>
    <linearGradient id="gradient-vertical1" x2="0" y2="1">
        <stop offset="0%" stop-color="var(--color-stop-1)" />
        <stop offset="100%" stop-color="var(--color-stop-2)" />
    </linearGradient>
    <linearGradient id="gradient-vertical2" x2="0" y2="1">
        <stop offset="0%" stop-color="var(--color-stop-1)" />
        <stop offset="100%" stop-color="var(--color-stop-2)" />
    </linearGradient>
    <linearGradient id="gradient-vertical3" x2="0" y2="1">
        <stop offset="0%" stop-color="var(--color-stop-1)" />
        <stop offset="100%" stop-color="var(--color-stop-2)" />
    </linearGradient>
    <linearGradient id="gradient-vertical4" x2="0" y2="1">
        <stop offset="0%" stop-color="var(--color-stop-1)" />
        <stop offset="100%" stop-color="var(--color-stop-2)" />
    </linearGradient>
    <linearGradient id="gradient-vertical5" x2="0" y2="1">
        <stop offset="0%" stop-color="var(--color-stop-1)" />
        <stop offset="100%" stop-color="var(--color-stop-2)" />
    </linearGradient>
    <style data-made-with="vivus-instant">
        #gradient-horizontal {
            --color-stop-1: white;
            --color-stop-2: white;
        }

        #gradient-vertical1 {
            --color-stop-1: #37ecba;
            --color-stop-2: black;
        }

        #gradient-vertical2 {
            --color-stop-1: #4facfe;
            --color-stop-2: #00f2fe;
        }

        #gradient-vertical3 {
            --color-stop-1: white;
            --color-stop-2: white;
        }

        #gradient-vertical4 {
            --color-stop-1: white;
            --color-stop-2: #66a6ff;
        }

        #gradient-vertical5 {
            --color-stop-1: #37ecba;
            --color-stop-2: #46394A;
        }

        .jDMaZdPx_0 {
            stroke-dasharray: 314 316;
            stroke-dashoffset: 315;
            animation: jDMaZdPx_draw_0 8800ms ease-in-out 0ms infinite, jDMaZdPx_fade 8800ms linear 0ms infinite;
        }

        .jDMaZdPx_1 {
            stroke-dasharray: 254 256;
            stroke-dashoffset: 255;
            animation: jDMaZdPx_draw_1 8800ms ease-in-out 0ms infinite, jDMaZdPx_fade 8800ms linear 0ms infinite;
        }

        .jDMaZdPx_2 {
            stroke-dasharray: 196 198;
            stroke-dashoffset: 197;
            animation: jDMaZdPx_draw_2 8800ms ease-in-out 0ms infinite, jDMaZdPx_fade 8800ms linear 0ms infinite;
        }

        .jDMaZdPx_3 {
            stroke-dasharray: 196 198;
            stroke-dashoffset: 197;
            animation: jDMaZdPx_draw_3 8800ms ease-in-out 0ms infinite, jDMaZdPx_fade 8800ms linear 0ms infinite;
        }

        .jDMaZdPx_4 {
            stroke-dasharray: 134 136;
            stroke-dashoffset: 135;
            animation: jDMaZdPx_draw_4 8800ms ease-in-out 0ms infinite, jDMaZdPx_fade 8800ms linear 0ms infinite;
        }

        .jDMaZdPx_5 {
            stroke-dasharray: 332 334;
            stroke-dashoffset: 333;
            animation: jDMaZdPx_draw_5 8800ms ease-in-out 0ms infinite, jDMaZdPx_fade 8800ms linear 0ms infinite;
        }

        .jDMaZdPx_6 {
            stroke-dasharray: 254 256;
            stroke-dashoffset: 255;
            animation: jDMaZdPx_draw_6 8800ms ease-in-out 0ms infinite, jDMaZdPx_fade 8800ms linear 0ms infinite;
        }

        .jDMaZdPx_7 {
            stroke-dasharray: 61 63;
            stroke-dashoffset: 62;
            animation: jDMaZdPx_draw_7 8800ms ease-in-out 0ms infinite, jDMaZdPx_fade 8800ms linear 0ms infinite;
        }

        .jDMaZdPx_8 {
            stroke-dasharray: 228 230;
            stroke-dashoffset: 229;
            animation: jDMaZdPx_draw_8 8800ms ease-in-out 0ms infinite, jDMaZdPx_fade 8800ms linear 0ms infinite;
        }

        .jDMaZdPx_9 {
            stroke-dasharray: 278 280;
            stroke-dashoffset: 279;
            animation: jDMaZdPx_draw_9 8800ms ease-in-out 0ms infinite, jDMaZdPx_fade 8800ms linear 0ms infinite;
        }

        @keyframes jDMaZdPx_draw {
            100% {
                stroke-dashoffset: 0;
            }
        }

        @keyframes jDMaZdPx_fade {
            0% {
                stroke-opacity: 1;
            }

            90.9090909090909% {
                stroke-opacity: 1;
            }

            100% {
                stroke-opacity: 0;
            }
        }

        @keyframes jDMaZdPx_draw_0 {
            22.727272727272727% {
                stroke-dashoffset: 315
            }

            45.45454545454545% {
                stroke-dashoffset: 0;
            }

            100% {
                stroke-dashoffset: 315;
        fill: url(#gradient-horizontal) gray;
            }
        }

        @keyframes jDMaZdPx_draw_1 {
            23.989898989898993% {
                stroke-dashoffset: 255
            }

            46.717171717171716% {
                stroke-dashoffset: 0;
            }

            100% {
                stroke-dashoffset: 255;
        fill: url(#gradient-horizontal) gray;
            }
        }

        @keyframes jDMaZdPx_draw_2 {
            25.252525252525253% {
                stroke-dashoffset: 197
            }

            47.979797979797986% {
                stroke-dashoffset: 0;
            }

            100% {
                stroke-dashoffset: 197;
        fill: url(#gradient-horizontal) gray;
            }
        }

        @keyframes jDMaZdPx_draw_3 {
            26.51515151515152% {
                stroke-dashoffset: 197
            }

            49.24242424242425% {
                stroke-dashoffset: 0;
            }

            100% {
                stroke-dashoffset: 197;
        fill: url(#gradient-horizontal) gray;
            }
        }

        @keyframes jDMaZdPx_draw_4 {
            27.77777777777778% {
                stroke-dashoffset: 135
            }

            50.505050505050505% {
                stroke-dashoffset: 0;
            }

            100% {
                stroke-dashoffset: 135;
        fill: url(#gradient-horizontal) gray;
            }
        }

        @keyframes jDMaZdPx_draw_5 {
            29.040404040404045% {
                stroke-dashoffset: 333
            }

            51.767676767676775% {
                stroke-dashoffset: 0;
            }

            100% {
                stroke-dashoffset: 333;
        fill: url(#gradient-horizontal) gray;
            }
        }

        @keyframes jDMaZdPx_draw_6 {
            30.303030303030305% {
                stroke-dashoffset: 255
            }

            53.03030303030304% {
                stroke-dashoffset: 0;
            }

            100% {
                stroke-dashoffset: 255;
        fill: url(#gradient-horizontal) gray;
            }
        }

        @keyframes jDMaZdPx_draw_7 {
            31.565656565656564% {
                stroke-dashoffset: 62
            }

            54.292929292929294% {
                stroke-dashoffset: 0;
            }

            100% {
                stroke-dashoffset: 62;
        fill: url(#gradient-vertical2) gray;
            }
        }

        @keyframes jDMaZdPx_draw_8 {
            32.82828282828283% {
                stroke-dashoffset: 229
            }

            55.55555555555556% {
                stroke-dashoffset: 0;
            }

            100% {
                stroke-dashoffset: 229;
        fill: url(#gradient-vertical3) gray;
            }
        }

        @keyframes jDMaZdPx_draw_9 {
            34.090909090909086% {
                stroke-dashoffset: 279
            }

            56.81818181818182% {
                stroke-dashoffset: 0;
            }

            100% {
                stroke-dashoffset: 279;
        fill: url(#gradient-vertical3) gray;
            }
        }

    </style>
</svg>
