<svg id="BACKGROUND_2" width="326px" height="420px" data-name="BACKGROUND 2" xmlns="http://www.w3.org/2000/svg" xmlns:xlink="http://www.w3.org/1999/xlink" viewBox="0 0 750 500">
    <defs>
        <style>
            .cls-1,
            .cls-3,
            .cls-5,
            .cls-6,
            .cls-7 {
                fill: none;
                stroke-miterlimit: 10;
            }
            
            .cls-1 {
                stroke: #8fffff;
                stroke-width: 1.1px;
            }
            
            .cls-2 {
                fill: #8fffff;
            }
            
            .cls-3,
            .cls-5,
            .cls-6,
            .cls-7 {
                stroke: #fff;
            }
            
            .cls-3 {
                stroke-width: 0.76px;
            }
            
            .cls-4 {
                fill: #fff;
            }
			.cal {
                fill: #000;
            }
            
            .cls-5 {
                stroke-width: 1.33px;
            }
            
            .cls-6 {
                stroke-width: 0.95px;
            }
            
            .cls-7 {
                stroke-width: 0.86px;
            }
            
            .cls-8 {
                fill: url(#linear-gradient);
            }
            
            .cls-9 {
                fill: #bbdeec;
            }
            
            .cls-10 {
                fill: url(#linear-gradient-2);
            }
            
            .cls-11 {
                fill: url(#linear-gradient-3);
            }
            
            .cls-12 {
                fill: url(#linear-gradient-4);
            }
            
            .cls-13 {
                fill: url(#linear-gradient-5);
            }
            
            .cls-14 {
                fill: url(#linear-gradient-6);
            }
            
            .cls-15 {
                fill: url(#linear-gradient-7);
            }
            
            .cls-16 {
                fill: url(#linear-gradient-8);
            }
            
            .cls-17 {
                fill: url(#linear-gradient-9);
            }
            
            .cls-18 {
                fill: url(#linear-gradient-10);
            }
            
            .cls-19 {
                fill: url(#linear-gradient-11);
            }
            
            .cls-20 {
                fill: url(#linear-gradient-12);
            }
            
            .cls-21 {
                fill: url(#linear-gradient-13);
            }
            
            .cls-22 {
                fill: url(#linear-gradient-14);
            }
            
            .cls-23 {
                fill: url(#linear-gradient-15);
            }
            
            .cls-24 {
                fill: url(#linear-gradient-16);
            }
        </style>
        <linearGradient id="linear-gradient" x1="652.7" y1="293.17" x2="686.08" y2="293.17" gradientUnits="userSpaceOnUse">
            <stop offset="0" stop-color="#80c6e5" />
            <stop offset="1" stop-color="#5ca1e0" />
        </linearGradient>
        <linearGradient id="linear-gradient-2" x1="314.25" y1="363.98" x2="369.33" y2="363.98" xlink:href="#linear-gradient" />
        <linearGradient id="linear-gradient-3" x1="129.76" y1="323.78" x2="183.61" y2="323.78" xlink:href="#linear-gradient" />
        <linearGradient id="linear-gradient-4" x1="129.76" y1="313.99" x2="183.61" y2="313.99" xlink:href="#linear-gradient" />
        <linearGradient id="linear-gradient-5" x1="129.76" y1="306.77" x2="183.61" y2="306.77" xlink:href="#linear-gradient" />
        <linearGradient id="linear-gradient-6" x1="499.24" y1="324.89" x2="547.13" y2="324.89" xlink:href="#linear-gradient" />
        <linearGradient id="linear-gradient-7" x1="499.24" y1="303.87" x2="547.13" y2="303.87" xlink:href="#linear-gradient" />
        <linearGradient id="linear-gradient-8" x1="499.24" y1="307.01" x2="547.14" y2="307.01" xlink:href="#linear-gradient" />
        <linearGradient id="linear-gradient-9" x1="499.23" y1="313.28" x2="547.14" y2="313.28" xlink:href="#linear-gradient" />
        <linearGradient id="linear-gradient-10" x1="461.96" y1="113.17" x2="516.84" y2="113.17" xlink:href="#linear-gradient" />
        <linearGradient id="linear-gradient-11" x1="461.96" y1="113.17" x2="516.84" y2="113.17" xlink:href="#linear-gradient" />
        <linearGradient id="linear-gradient-12" x1="617.63" y1="168.63" x2="652.24" y2="168.63" xlink:href="#linear-gradient" />
        <linearGradient id="linear-gradient-13" x1="62.62" y1="212.01" x2="106.86" y2="212.01" xlink:href="#linear-gradient" />
        <linearGradient id="linear-gradient-14" x1="284.66" y1="152.88" x2="331.3" y2="152.88" xlink:href="#linear-gradient" />
        <linearGradient id="linear-gradient-15" x1="284.67" y1="152.88" x2="331.3" y2="152.88" xlink:href="#linear-gradient" />
        <linearGradient id="linear-gradient-16" x1="344.75" y1="127.66" x2="380.31" y2="127.66" gradientTransform="translate(-201.33)" xlink:href="#linear-gradient" />
    </defs>
    <title>LOGO</title>
    <polyline class="cls-1" points="707.58 196.48 671.87 209.77 671.87 237.69 634.88 251.77 634.88 279.59 598.28 292.94 598.28 320.76 561.72 334.92 525.03 320.99" />
    <polyline class="cls-1" points="671.87 237.81 708.19 251.65 708.19 279.42 672.12 293.48 672.03 319.62" />
    <polyline class="cls-1" points="488.47 334.92 488.47 362.57 451.78 376.44 415.15 362.57 378.52 376.44" />
    <line class="cls-1" x1="488.47" y1="334.83" x2="525" y2="321.01" />
    <polyline class="cls-1" points="305.27 376.44 268.64 362.53 268.64 334.77 232.01 321.06 195.46 334.8 158.76 320.99" />
    <polyline class="cls-1" points="708.19 196.14 708.19 168.71 671.72 154.58 634.91 168.54 598.28 154.77 598.28 126.82 561.81 113.3 525.05 126.86 488.56 113.11 488.56 85.29 451.75 71.47 415.15 85.23 415.15 113.11 378.55 126.88 378.55 154.65 342.29 168.59 305.27 154.7 268.64 168.41 232.01 154.58 232.01 126.95 195.36 113.06 158.78 127.12 158.78 154.41 122.2 168.56 122.2 196.05 85.72 209.94 85.72 237.97 120.54 251.17" />
    <polyline class="cls-1" points="232.01 154.58 195.38 168.54 195.38 196.27 158.78 210.18 158.78 237.62 122.16 251.77 122.16 279.19 159.34 293.48" />
    <polyline class="cls-1" points="634.88 251.53 598.31 237.83 598.31 210.3 561.81 196.36 561.81 168.34 525.29 154.75 525.22 129.27" />
    <polyline class="cls-1" points="378.55 154.65 414.74 168.44 451.67 154.75 488.59 168.54 525.1 154.75" />
    <ellipse class="cls-2" cx="671.54" cy="210.08" rx="3.61" ry="2.37" />
    <ellipse class="cls-2" cx="634.97" cy="251.76" rx="3.61" ry="2.37" />
    <ellipse class="cls-2" cx="634.91" cy="279.4" rx="3.61" ry="2.37" />
    <ellipse class="cls-2" cx="708.16" cy="279.4" rx="3.61" ry="2.37" />
    <ellipse class="cls-2" cx="598.28" cy="293.26" rx="3.61" ry="2.37" />
    <ellipse class="cls-2" cx="525.03" cy="320.99" rx="3.61" ry="2.37" />
    <ellipse class="cls-2" cx="598.28" cy="320.99" rx="3.61" ry="2.37" />
    <ellipse class="cls-2" cx="671.9" cy="293.3" rx="3.61" ry="2.37" />
    <ellipse class="cls-2" cx="671.12" cy="237.52" rx="7.23" ry="4.74" />
    <ellipse class="cls-2" cx="708.23" cy="251.74" rx="3.61" ry="2.37" />
    <ellipse class="cls-2" cx="561.72" cy="334.92" rx="3.61" ry="2.37" />
    <ellipse class="cls-2" cx="671.05" cy="320.99" rx="3.61" ry="2.37" />
    <ellipse class="cls-2" cx="86.18" cy="238.18" rx="3.61" ry="2.37" />
    <ellipse class="cls-2" cx="85.51" cy="210.08" rx="3.61" ry="2.37" />
    <ellipse class="cls-2" cx="195.39" cy="113.04" rx="3.61" ry="2.37" />
    <ellipse class="cls-2" cx="158.76" cy="126.9" rx="3.61" ry="2.37" />
    <ellipse class="cls-2" cx="232.02" cy="126.9" rx="3.61" ry="2.37" />
    <ellipse class="cls-2" cx="158.76" cy="154.63" rx="3.61" ry="2.37" />
    <ellipse class="cls-2" cx="232.02" cy="154.63" rx="3.61" ry="2.37" />
    <ellipse class="cls-2" cx="122.13" cy="196.22" rx="3.61" ry="2.37" />
    <ellipse class="cls-2" cx="195.39" cy="196.22" rx="3.61" ry="2.37" />
    <ellipse class="cls-2" cx="158.76" cy="210.08" rx="3.61" ry="2.37" />
    <ellipse class="cls-2" cx="158.76" cy="237.81" rx="3.61" ry="2.37" />
    <ellipse class="cls-2" cx="122.2" cy="168.56" rx="7.23" ry="4.74" />
    <ellipse class="cls-2" cx="195.45" cy="168.56" rx="3.61" ry="2.37" />
    <ellipse class="cls-2" cx="122.13" cy="279.4" rx="3.61" ry="2.37" />
    <ellipse class="cls-2" cx="158.76" cy="293.26" rx="3.61" ry="2.37" />
    <ellipse class="cls-2" cx="158.76" cy="320.99" rx="3.61" ry="2.37" />
    <ellipse class="cls-2" cx="122.2" cy="251.74" rx="7.23" ry="4.74" />
    <ellipse class="cls-2" cx="451.78" cy="71.44" rx="3.61" ry="2.37" />
    <ellipse class="cls-2" cx="415.15" cy="113.04" rx="3.61" ry="2.37" />
    <ellipse class="cls-2" cx="488.4" cy="113.04" rx="3.61" ry="2.37" />
    <ellipse class="cls-2" cx="561.65" cy="113.04" rx="3.61" ry="2.37" />
    <ellipse class="cls-2" cx="378.52" cy="126.9" rx="3.61" ry="2.37" />
    <ellipse class="cls-2" cx="525.03" cy="126.9" rx="3.61" ry="2.37" />
    <ellipse class="cls-2" cx="598.28" cy="126.9" rx="7.23" ry="4.74" />
    <ellipse class="cls-2" cx="305.27" cy="154.63" rx="3.61" ry="2.37" />
    <ellipse class="cls-2" cx="378.52" cy="154.63" rx="3.61" ry="2.37" />
    <ellipse class="cls-2" cx="451.78" cy="154.63" rx="3.61" ry="2.37" />
    <ellipse class="cls-2" cx="525.03" cy="154.63" rx="3.61" ry="2.37" />
    <ellipse class="cls-2" cx="598.28" cy="154.63" rx="3.61" ry="2.37" />
    <ellipse class="cls-2" cx="415.22" cy="85.38" rx="7.23" ry="4.74" />
    <ellipse class="cls-2" cx="488.47" cy="85.38" rx="3.61" ry="2.37" />
    <ellipse class="cls-2" cx="268.71" cy="168.56" rx="3.61" ry="2.37" />
    <ellipse class="cls-2" cx="341.96" cy="168.56" rx="3.61" ry="2.37" />
    <ellipse class="cls-2" cx="415.22" cy="168.56" rx="7.23" ry="4.74" />
    <ellipse class="cls-2" cx="488.47" cy="168.56" rx="3.61" ry="2.37" />
    <ellipse class="cls-2" cx="561.72" cy="168.56" rx="3.61" ry="2.37" />
    <ellipse class="cls-2" cx="634.98" cy="168.56" rx="3.61" ry="2.37" />
    <ellipse class="cls-2" cx="671.54" cy="154.63" rx="3.61" ry="2.37" />
    <ellipse class="cls-2" cx="561.65" cy="196.22" rx="3.61" ry="2.37" />
    <ellipse class="cls-2" cx="708.16" cy="196.22" rx="3.61" ry="2.37" />
    <ellipse class="cls-2" cx="598.28" cy="210.08" rx="3.61" ry="2.37" />
    <ellipse class="cls-2" cx="598.28" cy="237.81" rx="3.61" ry="2.37" />
    <ellipse class="cls-2" cx="708.23" cy="168.56" rx="3.61" ry="2.37" />
    <ellipse class="cls-2" cx="415.15" cy="362.58" rx="3.61" ry="2.37" />
    <ellipse class="cls-2" cx="488.4" cy="362.58" rx="3.61" ry="2.37" />
    <ellipse class="cls-2" cx="378.52" cy="376.44" rx="3.61" ry="2.37" />
    <ellipse class="cls-2" cx="451.78" cy="376.44" rx="7.23" ry="4.74" />
    <ellipse class="cls-2" cx="488.47" cy="334.92" rx="3.61" ry="2.37" />
    <ellipse class="cls-2" cx="232.02" cy="320.99" rx="3.61" ry="2.37" />
    <ellipse class="cls-2" cx="268.64" cy="362.58" rx="3.61" ry="2.37" />
    <ellipse class="cls-2" cx="305.27" cy="376.44" rx="3.61" ry="2.37" />
    <ellipse class="cls-2" cx="195.45" cy="334.92" rx="3.61" ry="2.37" />
    <ellipse class="cls-2" cx="268.71" cy="334.92" rx="3.61" ry="2.37" />
    <image width="137" height="115" transform="translate(565.53 112)" xlink:href="LOGO1.png" />
    <ellipse class="cls-3" cx="633.86" cy="169.43" rx="36.85" ry="24.16" />
    <path class="cls-4" d="M665.76,169.43c0,11.55-14.28,20.92-31.91,20.92S602,181,602,169.43s14.28-20.92,31.9-20.92S665.76,157.88,665.76,169.43Z" />
    <image width="184" height="146" transform="translate(251.53 291)" xlink:href="LOGO2.png" />
    <path class="cls-5" d="M407.46,363.59c0,23.27-28.77,42.14-64.28,42.14s-64.27-18.87-64.27-42.14,28.78-42.14,64.27-42.14S407.46,340.32,407.46,363.59Z" />
    <path class="cls-4" d="M398.84,363.59c0,20.15-24.92,36.48-55.66,36.48s-55.65-16.34-55.65-36.48,24.92-36.49,55.65-36.49S398.84,343.44,398.84,363.59Z" />
    <image width="153" height="126" transform="translate(447.53 259)" xlink:href="LOGO3.png" />
    <ellipse class="cls-6" cx="524.38" cy="321.98" rx="46.06" ry="30.2" />
    <ellipse class="cls-4" cx="524.38" cy="321.98" rx="39.88" ry="26.15" />
    <image width="145" height="120" transform="translate(598.53 233)" xlink:href="LOGO4.png" />
    <ellipse class="cls-7" cx="671.08" cy="293.25" rx="41.45" ry="27.18" />
    <ellipse class="cls-4" cx="671.08" cy="293.25" rx="35.89" ry="23.53" />
    <image width="145" height="120" transform="translate(235.53 93)" xlink:href="LOGO5.png" />
    <ellipse class="cls-7" cx="307.76" cy="152.85" rx="41.45" ry="27.18" />
    <ellipse class="cls-4" cx="307.76" cy="152.85" rx="35.89" ry="23.53" />
    <image width="153" height="125" transform="translate(83.53 258)" xlink:href="LOGO6.png" />
    <ellipse class="cls-6" cx="160.06" cy="320.69" rx="46.06" ry="30.2" />
    <ellipse class="cls-4" cx="160.06" cy="320.69" rx="39.88" ry="26.15" />
    <image width="137" height="114" transform="translate(93.53 70)" xlink:href="LOGO7.png" />
    <ellipse class="cls-3" cx="162.03" cy="127.03" rx="36.85" ry="24.16" />
    <ellipse class="cls-4" cx="162.03" cy="127.03" rx="31.91" ry="20.92" />
    <image width="136" height="114" transform="translate(17.53 154)" xlink:href="LOGO8.png" />
    <ellipse class="cls-3" cx="85.51" cy="210.95" rx="36.85" ry="24.16" />
    <ellipse class="cls-4" cx="85.51" cy="210.95" rx="31.91" ry="20.92" />
    <image width="153" height="125" transform="translate(411.53 51)" xlink:href="LOGO9.png" />
    <path class="cls-6" d="M534,113.73c0,16.68-20.62,30.2-46.06,30.2s-46.06-13.52-46.06-30.2,20.62-30.2,46.06-30.2S534,97.05,534,113.73Z" />
    <path class="cls-4" d="M527.79,113.73c0,14.44-17.86,26.14-39.88,26.14S448,128.17,448,113.73s17.86-26.15,39.88-26.15S527.79,99.29,527.79,113.73Z" />
    <path class="cls-8" d="M666,278.75l-12.61,8V307.6h31.82V278.75Zm12.39,22.14h-18v-1.35h18Zm0-4.4h-18v-1.36h18Zm0-4.4h-18v-1.36h18Z" />
    <polygon class="cls-9" points="653.35 286.79 665.96 278.75 665.96 286.79 653.35 286.79" />
    <path class="cls-10" d="M334,385.9s19.51.83,24.44-2.41c0,0-.91-6.47,2.18-9.71s12.62-12.11,7-22.19-24.56-10.38-30.76-9.1-14.8,5.19-15.15,14.22c0,0-3.9,3.84-7.11,4.81,0,0-.92.6.34,1.43s3.21,2,3.21,2.78.69,5.27,0,7.07-1.38,4.44,4.25,5S332.36,378.83,334,385.9Z" />
    <polygon class="cls-11" points="174.91 331.77 174.91 323 166.99 323 166.99 331.77 162.7 331.77 162.7 313.76 154.78 313.76 154.78 331.77 150.48 331.77 150.48 319.46 142.56 319.46 142.56 331.77 138.59 331.77 138.59 333.8 178.04 333.8 178.04 331.77 174.91 331.77" />
    <polygon class="cls-12" points="134.05 322.07 133.06 321.44 155.91 306 169.26 314.7 180.52 305.9 181.58 306.48 169.36 316.04 155.93 307.29 134.05 322.07" />
    <polygon class="cls-13" points="175.95 305.93 184.11 304.02 182.66 309.52 175.95 305.93" />
    <polygon class="cls-14" points="546.49 337.16 501.44 337.16 514.52 325.4 514.52 315.98 511.26 314.96 512.99 312.61 518.49 314.35 518.49 326.25 509.25 334.56 538.68 334.56 529.44 326.25 529.44 314.35 534.94 312.61 536.66 314.96 533.41 315.98 533.41 325.4 546.49 337.16" />
    <ellipse class="cls-15" cx="529.59" cy="303.87" rx="5.79" ry="3.8" />
    <ellipse class="cls-16" cx="516.79" cy="307.02" rx="3.53" ry="2.32" />
    <ellipse class="cls-17" cx="523.61" cy="313.28" rx="3.44" ry="2.26" />
    <path class="cls-18" d="M487.94,118.93c-4.84,0-8.78-2.58-8.78-5.76s3.94-5.75,8.78-5.75,8.78,2.58,8.78,5.75S492.78,118.93,487.94,118.93Zm0-9.52c-3.16,0-5.74,1.69-5.74,3.76s2.57,3.76,5.74,3.76,5.74-1.69,5.74-3.76S491.11,109.41,487.94,109.41Z" />
    <path class="cls-19" d="M509.12,110.43h5.18a15.23,15.23,0,0,0-5.12-7.85l-3.55,2.33a4,4,0,0,1-4.06,0l-1.16-.76a1.48,1.48,0,0,1,0-2.66l3.53-2.31a35.1,35.1,0,0,0-12-3.3V99.2c0,1-1.29,1.88-2.87,1.88h-1.64c-1.58,0-2.87-.85-2.87-1.88V95.82A35.61,35.61,0,0,0,472.35,99l3.83,2.51a1.48,1.48,0,0,1,0,2.66l-1.16.76a4,4,0,0,1-4.06,0L467,102.32a15.41,15.41,0,0,0-5.43,8.11h5.88c1.58,0,2.87.85,2.87,1.88v1.07c0,1-1.29,1.88-2.87,1.88h-6a14.83,14.83,0,0,0,5.13,8.39L471,120.8a4,4,0,0,1,4.06,0l1.16.76a1.48,1.48,0,0,1,0,2.66l-4.39,2.88a35.22,35.22,0,0,0,12.82,3.44v-4c0-1,1.29-1.88,2.87-1.88h1.64c1.58,0,2.87.85,2.87,1.88v4a34.76,34.76,0,0,0,12.51-3.58l-4.08-2.68a1.47,1.47,0,0,1,0-2.66l1.16-.76a4,4,0,0,1,4.06,0l4,2.6a14.7,14.7,0,0,0,4.84-8.13h-5.31c-1.58,0-2.87-.85-2.87-1.88v-1.07C506.25,111.28,507.54,110.43,509.12,110.43ZM487.94,121.8c-7.27,0-13.16-3.86-13.16-8.63s5.89-8.63,13.16-8.63,13.16,3.86,13.16,8.63S495.21,121.8,487.94,121.8Z" />
    <path class="cls-20" d="M641.95,161.12c-2.95-1.69-8.66-4.93-9.64-7.45l3.33,22.42c-1.77-.74-4.8-.74-7.94.14-4.41,1.24-7.34,3.73-6.56,5.58s5,2.34,9.4,1.1a17.63,17.63,0,0,0,2.75-1c2.72-1.14,4.53-2.63,4.3-3.72l-1.77-14.61s11.37-.1,11.43,4.76a10.44,10.44,0,0,1-3.16,7.17s5.75-4.61,5.41-7.89C649.12,163.93,644.68,162.69,641.95,161.12Z" />
    <path class="cls-21" d="M102.23,201.16c-2.56,0-4.63,1.36-4.63,3a2.75,2.75,0,0,0,1.55,2.26L93,213.27a6.49,6.49,0,0,0-2.33-.42,6.41,6.41,0,0,0-2.67.56l-5.16-3.64A2.38,2.38,0,0,0,83.7,208c0-1.68-2.07-3-4.63-3s-4.63,1.36-4.63,3a2.65,2.65,0,0,0,1.39,2.17L69,217a6.66,6.66,0,0,0-1.73-.22c-2.56,0-4.63,1.35-4.63,3s2.07,3,4.63,3,4.63-1.36,4.63-3a2.67,2.67,0,0,0-1.4-2.17l6.84-6.86a6.73,6.73,0,0,0,1.73.22,6.48,6.48,0,0,0,2.43-.46l5.23,3.7a2.35,2.35,0,0,0-.72,1.62c0,1.68,2.07,3,4.63,3s4.63-1.36,4.63-3a2.42,2.42,0,0,0-.92-1.82l6.34-7a6.82,6.82,0,0,0,1.53.18c2.56,0,4.63-1.36,4.63-3S104.78,201.16,102.23,201.16Z" />
    <polygon class="cls-22" points="302.95 157.97 318.72 152.88 302.96 147.79 302.95 157.97" />
    <path class="cls-23" d="M323.39,143.57H293.78c-4.07,0-7.4,1.86-7.4,4.14v10.34c0,2.28,3.33,4.14,7.4,4.14h29.62c4.07,0,7.41-1.86,7.41-4.14V147.71C330.8,145.44,327.47,143.57,323.39,143.57ZM308.58,161c-8,0-14.53-3.63-14.53-8.13s6.51-8.12,14.53-8.13,14.55,3.64,14.55,8.13S316.61,161,308.58,161Z" />
    <path class="cls-24" d="M173.11,117.61H149.29c-3.23,0-5.87,1.73-5.87,3.85v8.83c0,2.12,2.64,3.85,5.87,3.85h8.77l11.7,3.56-2.89-3.56h6.23c3.23,0,5.87-1.73,5.87-3.85v-8.83C179,119.34,176.34,117.61,173.11,117.61Z" />
    <path class="cls-4 cal" d="M216.57,267.79a4.33,4.33,0,0,1-3.91-2.49,12.18,12.18,0,0,1-1.41-6.09,9.29,9.29,0,0,1,0-1c0-.25.07-.58.12-1a5.18,5.18,0,0,1-3.34-2.67,10.14,10.14,0,0,1-1.41-5.41,10.72,10.72,0,0,1,1.29-5.22q-2.74-2.36-2.74-7.21t2.74-7.09a11,11,0,0,1,.12-10.57,5.18,5.18,0,0,1,3.34-2.74l-.24-2.24a10,10,0,0,1,1.61-6,4.75,4.75,0,0,1,3.95-2.24c.54,0,.83,0,.89.12a10.34,10.34,0,0,1,1.65-5.6A4.49,4.49,0,0,1,223,198a4,4,0,0,1,3.22,1.74q1.45-5.1,5-5.1,3.87,0,5,5.72A4.78,4.78,0,0,1,240.1,198a4.44,4.44,0,0,1,3.67,2.36,10.36,10.36,0,0,1,1.65,5.6l1.45-.12a2.47,2.47,0,0,1,1.89.62,6.63,6.63,0,0,1,1.61,2,12.37,12.37,0,0,1,1.09,2.74,11,11,0,0,1,.4,2.86,10.21,10.21,0,0,1-1.61,5.78q-1.61,2.42-3.71,2.42a4.49,4.49,0,0,1-3.75-2.36,10.09,10.09,0,0,1-1.57-5.72l-1.13.25q-3.87,0-5.16-5.6a4.3,4.3,0,0,1-3.71,2.24,4.15,4.15,0,0,1-3.38-1.74q-1.37,5-5,5a2.39,2.39,0,0,1-1-.12,10.38,10.38,0,0,1-1.37,5.41,5.07,5.07,0,0,1-3.3,2.67l.16,2.24q0,4.73-2.66,7.09a10.49,10.49,0,0,1,1.29,5.1,11,11,0,0,1-1.29,5.35q2.66,2.24,2.66,7,0,.62,0,1.12t-.12,1.12a5.57,5.57,0,0,1,3.3,2.8,10.14,10.14,0,0,1,1.37,5.28l1.45-.12a3,3,0,0,1,2.78,1.43,15.32,15.32,0,0,1,1.81,3.54,4.22,4.22,0,0,1,3.38-1.87q2.18,0,3.71,2.61,1.21-5.72,5.24-5.72a2.41,2.41,0,0,1,1,.12,10.09,10.09,0,0,1,1.57-5.72,4.49,4.49,0,0,1,3.75-2.36q2.09,0,3.71,2.42a10.44,10.44,0,0,1,1.61,5.91,10,10,0,0,1-1.57,5.84,4.65,4.65,0,0,1-3.91,2.24,2.09,2.09,0,0,1-1-.12,10.9,10.9,0,0,1-1.65,5.78q-1.57,2.42-3.67,2.42t-3.87-2.61q-1.13,5.72-5,5.72-3.55,0-5-5.1a4.05,4.05,0,0,1-3.22,2,4.48,4.48,0,0,1-3.75-2.42,10.88,10.88,0,0,1-1.65-5.78Zm-4.19-31.08q0-2.61-1.85-2.61-1.69,0-1.69,2.61,0,2.86,1.69,2.86Q212.38,239.56,212.38,236.71Zm1.37-12.19q0-2.73-1.77-2.74t-1.69,2.74q0,2.74,1.69,2.74T213.75,224.52Zm0,24.62q0-2.73-1.77-2.74t-1.69,2.74q0,2.74,1.69,2.73T213.75,249.14Zm2.82-32.33q1.69,0,1.69-2.74t-1.69-2.74q-1.86,0-1.85,2.74T216.57,216.81Zm0,45.51q1.69,0,1.69-2.74t-1.69-2.86q-1.86,0-1.85,2.86T216.57,262.32Zm8.14-56.08q0-2.73-1.69-2.74-1.85,0-1.85,2.74t1.85,2.61Q224.71,208.85,224.71,206.24ZM223,270.15q1.69,0,1.69-2.74T223,264.68q-1.85,0-1.85,2.74T223,270.15ZM233,203q0-2.86-1.77-2.86T229.46,203q0,2.61,1.77,2.61T233,203Zm0,67.64q0-2.73-1.77-2.74t-1.77,2.74q0,2.74,1.77,2.74T233,270.65Zm8.87-64.41q0-2.73-1.77-2.74t-1.77,2.74q0,2.61,1.77,2.61T241.87,206.24Zm0,61.18q0-2.73-1.77-2.74t-1.77,2.74q0,2.74,1.77,2.74T241.87,267.42Zm6.45-53.34q0-2.73-1.77-2.74t-1.77,2.74q0,2.74,1.77,2.74T248.32,214.08Zm0,45.51q0-2.86-1.77-2.86t-1.77,2.86q0,2.74,1.77,2.74T248.32,259.58Z" />
    <path class="cls-4 cal" d="M291.92,265.68q-1.61,3-4.11,3-2.82,0-4.35-3.36-1.69,3.36-4.27,3.36T275,265.55q-1.69,3.11-4.27,3.11t-4.27-3.36l-1.69,2a8.84,8.84,0,0,1,.73,3.85,12.33,12.33,0,0,1-1.41,5.72,4.47,4.47,0,0,1-4.15,2.74q-2.18,0-3.75-2.49a10.7,10.7,0,0,1-1.57-5.84q0-5.6,3.22-7.58a12.1,12.1,0,0,1-.81-4.35,11.62,11.62,0,0,1,.81-4.29,5.88,5.88,0,0,1,2.5-3,11.24,11.24,0,0,1-.73-4.1,11.9,11.9,0,0,1,.73-4.1,7.2,7.2,0,0,1,2.58-3.36,12.12,12.12,0,0,1-.81-4.35,10.38,10.38,0,0,1,.81-4,6.8,6.8,0,0,1,2.82-3.17q-.16-1.24-.32-2.42a17,17,0,0,1-.16-2.3,11.3,11.3,0,0,1,.69-4,6.54,6.54,0,0,1,2.46-3,14.8,14.8,0,0,1-.73-4.6,10.94,10.94,0,0,1,.68-3.92,6.54,6.54,0,0,1,2.14-2.92,12,12,0,0,1-.56-3.73,11.83,11.83,0,0,1,1.45-5.84,4.45,4.45,0,0,1,4-2.61q2.09,0,3.87,2.74,1.61-2.73,4-2.74,2.25,0,3.79,2.61a11.59,11.59,0,0,1,1.53,6,10.88,10.88,0,0,1-.73,4,9,9,0,0,1,3.06,7.21,11.17,11.17,0,0,1-.81,4.23q3.06,1.87,3.06,7a21.77,21.77,0,0,1-.56,4.48q3.22,2.12,3.22,7a17.84,17.84,0,0,1-.56,4.6q3.06,2.24,3.06,7a19.24,19.24,0,0,1-.12,2.18q-.12,1.06-.28,2.42,3.06,2.12,3.06,7.21a18.3,18.3,0,0,1-.56,4.48q3.3,2.12,3.3,7.58a10.32,10.32,0,0,1-1.65,5.84q-1.65,2.49-3.83,2.49-5.16,0-5.16-8.33,0-.87.08-1.87a16.13,16.13,0,0,1,.32-2.11Zm-30.22,5.59q0-2.73-1.77-2.74t-1.77,2.74q0,2.74,1.77,2.74T261.7,271.27Zm2.66-11.44q0-2.86-1.85-2.86t-1.77,2.86q0,2.61,1.77,2.61T264.36,259.83Zm2.58-11.69q0-2.73-1.77-2.74-1.93,0-1.93,2.74t1.93,2.74Q266.93,250.88,266.93,248.14Zm2.58-11.44q0-2.73-1.77-2.74t-1.85,2.74q0,2.74,1.85,2.74T269.51,236.71ZM272.17,225q0-2.86-1.77-2.86T268.55,225q0,2.74,1.85,2.74T272.17,225Zm.4,35.31q0-2.86-1.85-2.86t-1.77,2.86q0,2.74,1.77,2.74T272.58,260.33Zm15.71-8.46a17,17,0,0,1-.56-3.73,11,11,0,0,1,.64-3.85q-3.14-2.36-3.14-7.58a11.17,11.17,0,0,1,.64-4.1q-3.38-2.24-3.38-7.58a10.89,10.89,0,0,1,.73-4q-3.14-2.24-3.14-7.71a13.5,13.5,0,0,1,.16-2.05,11.47,11.47,0,0,1,.56-2.18,3.9,3.9,0,0,1-1.53-1.49,5.53,5.53,0,0,1-1.61,1.74,10.89,10.89,0,0,1,.73,4q0,5.47-3.3,7.71a14.62,14.62,0,0,1,.64,4q0,5.35-3.22,7.58a16,16,0,0,1,.56,4.1q0,5.22-3.14,7.58c.16.66.29,1.31.4,1.93a11.32,11.32,0,0,1,.16,1.93,17.08,17.08,0,0,1-.56,3.73h1.21q2.09,0,3.87,3.11,1.53-3.11,4.19-3.11t4.27,3.36q1.53-3.36,4.35-3.36Zm-13.54-38.54q0-2.86-1.85-2.86T271,213.33q0,2.86,1.85,2.86T274.75,213.33Zm2.42-11.44q0-3-1.77-3t-1.85,3q0,2.74,1.85,2.74T277.17,201.89ZM281,260.33q0-2.86-1.77-2.86t-1.77,2.86q0,2.74,1.77,2.74T281,260.33Zm4.19-58.44q0-3-1.85-3-1.69,0-1.69,3,0,2.74,1.69,2.74Q285.15,204.63,285.15,201.89Zm2.18,11.44q0-2.86-1.93-2.86-1.77,0-1.77,2.86t1.77,2.86Q287.32,216.19,287.32,213.33Zm.48,49.74q1.69,0,1.69-2.74t-1.69-2.86q-1.85,0-1.85,2.86T287.81,263.07Zm.24-35.31q1.69,0,1.69-2.74T288,222.16q-1.93,0-1.93,2.86T288,227.75Zm4.35,9q0-2.73-1.77-2.74t-1.77,2.74q0,2.74,1.77,2.74T292.4,236.71ZM295,248.14q0-2.73-1.85-2.74t-1.77,2.74q0,2.74,1.77,2.74T295,248.14Zm2.5,11.69q0-2.86-1.69-2.86-1.85,0-1.85,2.86,0,2.61,1.85,2.61Q297.48,262.44,297.48,259.83Zm2.58,11.44q0-2.73-1.77-2.74t-1.77,2.74q0,2.74,1.77,2.74T300.06,271.27Z" />
    <path class="cls-4 cal" d="M318.51,264.31Q320,261,322.78,261q2.5,0,4.19,3.36,1.53-3.36,4.27-3.36a4.59,4.59,0,0,1,3.79,2.36,11.29,11.29,0,0,1,0,11.63,4.58,4.58,0,0,1-3.79,2.42q-2.66,0-4.27-3.23-1.69,3.23-4.19,3.23-2.66,0-4.27-3.23-1.69,3.23-4.27,3.23a4.48,4.48,0,0,1-3.75-2.42,10.4,10.4,0,0,1-1.57-5.78,10.2,10.2,0,0,1,2.1-6.59,9.88,9.88,0,0,1-2.1-6.59,10,10,0,0,1,2.1-6.47,11.41,11.41,0,0,1,0-13.18,10.19,10.19,0,0,1-2.1-6.59,9.69,9.69,0,0,1,2.1-6.47,10.19,10.19,0,0,1-2.1-6.59A10.39,10.39,0,0,1,311,210a9.69,9.69,0,0,1-2.1-6.47,10.33,10.33,0,0,1,1.57-5.84,4.15,4.15,0,0,1,7.5,0,10.33,10.33,0,0,1,1.57,5.84,9.18,9.18,0,0,1-2.18,6.47,10.14,10.14,0,0,1,2.18,6.71,10,10,0,0,1-2.18,6.59,9.47,9.47,0,0,1,2.18,6.47,10,10,0,0,1-2.18,6.59,9.65,9.65,0,0,1,2.18,6.59,9.36,9.36,0,0,1-2.18,6.59,9.76,9.76,0,0,1,2.18,6.47,9.36,9.36,0,0,1-2.18,6.59Zm-2.5-60.8q0-2.73-1.77-2.74t-1.77,2.74q0,2.74,1.77,2.74T316,203.51Zm0,13.18q0-2.73-1.77-2.74t-1.77,2.74q0,2.61,1.77,2.61T316,216.69Zm0,13.06q0-2.73-1.77-2.74t-1.77,2.74q0,2.74,1.77,2.74T316,229.74Zm0,13.18q0-2.86-1.77-2.86t-1.77,2.86q0,2.74,1.77,2.74T316,242.92Zm-1.77,15.92q1.77,0,1.77-2.86,0-2.61-1.77-2.61T312.46,256Q312.46,258.84,314.24,258.84ZM316,269.16q0-2.73-1.77-2.74t-1.77,2.74q0,2.74,1.77,2.74T316,269.16Zm6.77,2.74q1.69,0,1.69-2.74t-1.69-2.74q-1.86,0-1.85,2.74T322.78,271.89Zm10.31-2.74q0-2.73-1.85-2.74t-1.77,2.74q0,2.74,1.77,2.74T333.09,269.16Z" />
    <path class="cls-4 cal" d="M350.82,264.31q1.53-3.36,4.27-3.36,2.5,0,4.19,3.36,1.53-3.36,4.27-3.36a4.59,4.59,0,0,1,3.79,2.36,11.29,11.29,0,0,1,0,11.63,4.58,4.58,0,0,1-3.79,2.42q-2.66,0-4.27-3.23-1.69,3.23-4.19,3.23-2.66,0-4.27-3.23-1.69,3.23-4.27,3.23a4.48,4.48,0,0,1-3.75-2.42,10.4,10.4,0,0,1-1.57-5.78,10.2,10.2,0,0,1,2.1-6.59,9.88,9.88,0,0,1-2.1-6.59,10,10,0,0,1,2.1-6.47,11.41,11.41,0,0,1,0-13.18,10.19,10.19,0,0,1-2.1-6.59,9.69,9.69,0,0,1,2.1-6.47,10.19,10.19,0,0,1-2.1-6.59,10.39,10.39,0,0,1,2.1-6.71,9.69,9.69,0,0,1-2.1-6.47,10.33,10.33,0,0,1,1.57-5.84,4.15,4.15,0,0,1,7.5,0,10.33,10.33,0,0,1,1.57,5.84,9.18,9.18,0,0,1-2.18,6.47,10.14,10.14,0,0,1,2.18,6.71,10,10,0,0,1-2.18,6.59,9.47,9.47,0,0,1,2.18,6.47,10,10,0,0,1-2.18,6.59,9.65,9.65,0,0,1,2.18,6.59,9.36,9.36,0,0,1-2.18,6.59,9.76,9.76,0,0,1,2.18,6.47,9.36,9.36,0,0,1-2.18,6.59Zm-2.5-60.8q0-2.73-1.77-2.74t-1.77,2.74q0,2.74,1.77,2.74T348.32,203.51Zm0,13.18q0-2.73-1.77-2.74t-1.77,2.74q0,2.61,1.77,2.61T348.32,216.69Zm0,13.06q0-2.73-1.77-2.74t-1.77,2.74q0,2.74,1.77,2.74T348.32,229.74Zm0,13.18q0-2.86-1.77-2.86t-1.77,2.86q0,2.74,1.77,2.74T348.32,242.92Zm-1.77,15.92q1.77,0,1.77-2.86,0-2.61-1.77-2.61T344.78,256Q344.78,258.84,346.55,258.84Zm1.77,10.32q0-2.73-1.77-2.74t-1.77,2.74q0,2.74,1.77,2.74T348.32,269.16Zm6.77,2.74q1.69,0,1.69-2.74t-1.69-2.74q-1.86,0-1.85,2.74T355.09,271.89Zm10.31-2.74q0-2.73-1.85-2.74t-1.77,2.74q0,2.74,1.77,2.74T365.41,269.16Z" />
    <path class="cls-4 cal" d="M382.09,262.57a10.2,10.2,0,0,1,2.1,6.59,10.61,10.61,0,0,1-1.53,5.78,4.39,4.39,0,0,1-3.71,2.42,4.53,4.53,0,0,1-3.83-2.42,10.4,10.4,0,0,1-1.57-5.78,10,10,0,0,1,2.18-6.59,9.36,9.36,0,0,1-2.18-6.59,9.76,9.76,0,0,1,2.18-6.47,9.36,9.36,0,0,1-2.18-6.59,9.65,9.65,0,0,1,2.18-6.59,10,10,0,0,1-2.18-6.59,9.47,9.47,0,0,1,2.18-6.47,10,10,0,0,1-2.18-6.59,10.14,10.14,0,0,1,2.18-6.71,9.18,9.18,0,0,1-2.18-6.47,10.33,10.33,0,0,1,1.57-5.84,4.55,4.55,0,0,1,3.83-2.36,4.4,4.4,0,0,1,3.71,2.36,10.54,10.54,0,0,1,1.53,5.84,9.69,9.69,0,0,1-2.1,6.47,10.4,10.4,0,0,1,2.1,6.71,10.2,10.2,0,0,1-2.1,6.59,9.7,9.7,0,0,1,2.1,6.47,10.2,10.2,0,0,1-2.1,6.59,11.41,11.41,0,0,1,0,13.18,10,10,0,0,1,2.1,6.47A9.89,9.89,0,0,1,382.09,262.57Zm-3.14-56.33q1.69,0,1.69-2.74t-1.69-2.74q-1.85,0-1.85,2.74T378.95,206.24Zm1.69,10.44q0-2.73-1.69-2.74-1.85,0-1.85,2.74t1.85,2.61Q380.64,219.3,380.64,216.69Zm-1.69,15.79q1.69,0,1.69-2.74T378.95,227q-1.85,0-1.85,2.74T378.95,232.48Zm0,13.18q1.69,0,1.69-2.74t-1.69-2.86q-1.85,0-1.85,2.86T378.95,245.66Zm0,13.18q1.69,0,1.69-2.86,0-2.61-1.69-2.61-1.85,0-1.85,2.61Q377.09,258.84,378.95,258.84Zm0,13.06q1.69,0,1.69-2.74t-1.69-2.74q-1.85,0-1.85,2.74T378.95,271.89Z" />
    <path class="cls-4 cal" d="M425.44,259.46a10,10,0,0,1-1.57,5.84,4.65,4.65,0,0,1-3.91,2.24,2.38,2.38,0,0,1-1-.12,10.4,10.4,0,0,1-1.57,5.78,4.48,4.48,0,0,1-3.75,2.42q-1.93,0-3.79-2.61-1,5.72-5.08,5.72-2.74,0-4.35-3.61a4.57,4.57,0,0,1-3.63,2.11,4.48,4.48,0,0,1-3.75-2.42,10.4,10.4,0,0,1-1.57-5.78,10.19,10.19,0,0,1,2.1-6.59,9.88,9.88,0,0,1-2.1-6.59,10,10,0,0,1,2.1-6.47,11.41,11.41,0,0,1,0-13.18,10.19,10.19,0,0,1-2.1-6.59,9.69,9.69,0,0,1,2.1-6.47,10.19,10.19,0,0,1-2.1-6.59,9.89,9.89,0,0,1,2.1-6.59,10.19,10.19,0,0,1-2.1-6.59A10.4,10.4,0,0,1,393,197.6a4.48,4.48,0,0,1,3.75-2.42q2.18,0,3.79,2.61,1.69-3.23,4.19-3.23,3.95,0,5.08,5.72,1.77-2.36,3.79-2.36a4.5,4.5,0,0,1,3.75,2.36,9.87,9.87,0,0,1,1.57,5.6l1.21-.12h.4q2.25,0,3.55,2.61a13,13,0,0,1,1.29,5.84v1a8.36,8.36,0,0,1-.08,1,5.06,5.06,0,0,1,3.3,2.74A10.72,10.72,0,0,1,430,224.4a10.55,10.55,0,0,1-1.21,5.1q2.66,2.49,2.66,7.21t-2.66,7.09A10.83,10.83,0,0,1,430,249a10.71,10.71,0,0,1-1.37,5.47,4.62,4.62,0,0,1-3.3,2.61Zm-26.92-56.08q0-2.73-1.77-2.74T395,203.38q0,2.74,1.77,2.74T398.53,203.38Zm0,13.18q0-2.73-1.77-2.74T395,216.56q0,2.61,1.77,2.61T398.53,216.56Zm0,13.06q0-2.73-1.77-2.74T395,229.62q0,2.74,1.77,2.74T398.53,229.62Zm0,13.18q0-2.73-1.77-2.74T395,242.8q0,2.74,1.77,2.74T398.53,242.8Zm-1.77,15.92q1.77,0,1.77-2.86,0-2.61-1.77-2.61T395,255.85Q395,258.72,396.75,258.71ZM398.53,269q0-2.73-1.77-2.74T395,269q0,2.74,1.77,2.74T398.53,269Zm15.07-54.71q-3.71,0-5-5.6a4.78,4.78,0,0,1-3.87,2.36q-2.26,0-3.79-2.61l-1,1.49a9.89,9.89,0,0,1,2.09,6.59,10.19,10.19,0,0,1-2.09,6.59,9.7,9.7,0,0,1,2.09,6.47,10.19,10.19,0,0,1-2.09,6.59,11.41,11.41,0,0,1,0,13.18,10,10,0,0,1,2.09,6.47,9.89,9.89,0,0,1-2.09,6.59,7.53,7.53,0,0,1,.68,1q.28.5.6,1.12a4.32,4.32,0,0,1,3.55-2.24,4.61,4.61,0,0,1,3.87,2.49q1.13-5.72,5.16-5.72a2.72,2.72,0,0,1,1.13.13,10.37,10.37,0,0,1,1.33-5.29,5,5,0,0,1,3.26-2.67,41.67,41.67,0,0,1-.24-4.48q0-2.61,2.74-4.85a11.22,11.22,0,0,1,0-10.44q-2.66-2.24-2.66-7.09c0-.41,0-.79,0-1.12s.07-.7.12-1.12a5,5,0,0,1-3.26-2.67,10.61,10.61,0,0,1-1.33-5.41Zm-7.09-11.44q0-2.86-1.77-2.86T403,202.88q0,2.61,1.77,2.61T406.5,202.88Zm0,67.64q0-2.73-1.77-2.74T403,270.53q0,2.74,1.77,2.74T406.5,270.53Zm8.86-64.41q0-2.73-1.77-2.74t-1.69,2.74q0,2.74,1.69,2.74T415.37,206.12Zm-1.77,64q1.77,0,1.77-2.86t-1.77-2.74q-1.69,0-1.69,2.74T413.6,270.15ZM422,214q0-2.73-1.85-2.74-1.69,0-1.69,2.74t1.69,2.74Q422,216.69,422,214Zm0,45.51q0-2.73-1.85-2.74-1.69,0-1.69,2.74t1.69,2.74Q422,262.19,422,259.46Zm4.43-35.06q0-2.73-1.77-2.74t-1.85,2.74q0,2.74,1.85,2.74T426.41,224.4Zm0,24.62q0-2.73-1.77-2.74T422.78,249q0,2.74,1.85,2.74T426.41,249Zm1.45-12.31q0-2.73-1.85-2.74t-1.77,2.74q0,2.74,1.77,2.74T427.86,236.71Z" />
    <path class="cls-4 cal" d="M467.67,265.68q-1.61,3-4.11,3-2.82,0-4.35-3.36-1.69,3.36-4.27,3.36t-4.19-3.11q-1.69,3.11-4.27,3.11t-4.27-3.36l-1.69,2a8.84,8.84,0,0,1,.73,3.85,12.33,12.33,0,0,1-1.41,5.72,4.47,4.47,0,0,1-4.15,2.74q-2.18,0-3.75-2.49a10.7,10.7,0,0,1-1.57-5.84q0-5.6,3.22-7.58a12.1,12.1,0,0,1-.81-4.35,11.62,11.62,0,0,1,.81-4.29,5.88,5.88,0,0,1,2.5-3,11.24,11.24,0,0,1-.73-4.1,11.9,11.9,0,0,1,.73-4.1,7.2,7.2,0,0,1,2.58-3.36,12.12,12.12,0,0,1-.81-4.35,10.38,10.38,0,0,1,.81-4,6.8,6.8,0,0,1,2.82-3.17q-.16-1.24-.32-2.42a17,17,0,0,1-.16-2.3,11.3,11.3,0,0,1,.69-4,6.54,6.54,0,0,1,2.46-3,14.8,14.8,0,0,1-.73-4.6,10.94,10.94,0,0,1,.68-3.92,6.54,6.54,0,0,1,2.14-2.92,12,12,0,0,1-.56-3.73,11.83,11.83,0,0,1,1.45-5.84,4.45,4.45,0,0,1,4-2.61q2.09,0,3.87,2.74,1.61-2.73,4-2.74,2.25,0,3.79,2.61a11.59,11.59,0,0,1,1.53,6,10.88,10.88,0,0,1-.73,4,9,9,0,0,1,3.06,7.21,11.17,11.17,0,0,1-.81,4.23q3.06,1.87,3.06,7a21.77,21.77,0,0,1-.56,4.48q3.22,2.12,3.22,7a17.84,17.84,0,0,1-.56,4.6q3.06,2.24,3.06,7a19.24,19.24,0,0,1-.12,2.18q-.12,1.06-.28,2.42,3.06,2.12,3.06,7.21a18.3,18.3,0,0,1-.56,4.48q3.3,2.12,3.3,7.58a10.32,10.32,0,0,1-1.65,5.84q-1.65,2.49-3.83,2.49-5.16,0-5.16-8.33,0-.87.08-1.87a16.13,16.13,0,0,1,.32-2.11Zm-30.22,5.59q0-2.73-1.77-2.74t-1.77,2.74q0,2.74,1.77,2.74T437.45,271.27Zm2.66-11.44q0-2.86-1.85-2.86t-1.77,2.86q0,2.61,1.77,2.61T440.11,259.83Zm2.58-11.69q0-2.73-1.77-2.74-1.93,0-1.93,2.74t1.93,2.74Q442.69,250.88,442.69,248.14Zm2.58-11.44q0-2.73-1.77-2.74t-1.85,2.74q0,2.74,1.85,2.74T445.27,236.71ZM447.93,225q0-2.86-1.77-2.86T444.3,225q0,2.74,1.85,2.74T447.93,225Zm.4,35.31q0-2.86-1.85-2.86t-1.77,2.86q0,2.74,1.77,2.74T448.33,260.33ZM464,251.87a17,17,0,0,1-.56-3.73,11,11,0,0,1,.64-3.85q-3.14-2.36-3.14-7.58a11.17,11.17,0,0,1,.64-4.1q-3.38-2.24-3.38-7.58a10.89,10.89,0,0,1,.73-4q-3.14-2.24-3.14-7.71a13.5,13.5,0,0,1,.16-2.05,11.47,11.47,0,0,1,.56-2.18,3.9,3.9,0,0,1-1.53-1.49,5.53,5.53,0,0,1-1.61,1.74,10.89,10.89,0,0,1,.73,4q0,5.47-3.3,7.71a14.62,14.62,0,0,1,.64,4q0,5.35-3.22,7.58a16,16,0,0,1,.56,4.1q0,5.22-3.14,7.58c.16.66.29,1.31.4,1.93a11.32,11.32,0,0,1,.16,1.93,17.08,17.08,0,0,1-.56,3.73h1.21q2.09,0,3.87,3.11,1.53-3.11,4.19-3.11t4.27,3.36q1.53-3.36,4.35-3.36ZM450.5,213.33q0-2.86-1.85-2.86t-1.85,2.86q0,2.86,1.85,2.86T450.5,213.33Zm2.42-11.44q0-3-1.77-3t-1.85,3q0,2.74,1.85,2.74T452.92,201.89Zm3.79,58.44q0-2.86-1.77-2.86t-1.77,2.86q0,2.74,1.77,2.74T456.71,260.33Zm4.19-58.44q0-3-1.85-3-1.69,0-1.69,3,0,2.74,1.69,2.74Q460.9,204.63,460.9,201.89Zm2.18,11.44q0-2.86-1.93-2.86-1.77,0-1.77,2.86t1.77,2.86Q463.08,216.19,463.08,213.33Zm.48,49.74q1.69,0,1.69-2.74t-1.69-2.86q-1.85,0-1.85,2.86T463.56,263.07Zm.24-35.31q1.69,0,1.69-2.74t-1.69-2.86q-1.93,0-1.93,2.86T463.8,227.75Zm4.35,9q0-2.73-1.77-2.74t-1.77,2.74q0,2.74,1.77,2.74T468.15,236.71Zm2.58,11.44q0-2.73-1.85-2.74t-1.77,2.74q0,2.74,1.77,2.74T470.73,248.14Zm2.5,11.69q0-2.86-1.69-2.86-1.85,0-1.85,2.86,0,2.61,1.85,2.61Q473.23,262.44,473.23,259.83Zm2.58,11.44q0-2.73-1.77-2.74t-1.77,2.74q0,2.74,1.77,2.74T475.81,271.27Z" />
    <path class="cls-4 cal" d="M483.14,222.41a12.46,12.46,0,0,1,1,4.85,10.47,10.47,0,0,1-1.57,5.72,4.52,4.52,0,0,1-3.83,2.49q-2.18,0-3.75-2.49a10.47,10.47,0,0,1-1.57-5.72q0-5,3-7.34a12.1,12.1,0,0,1-1-4.85q0-5,2.9-7.34a9.53,9.53,0,0,1-.89-4.35,10.29,10.29,0,0,1,1.53-5.72,4.4,4.4,0,0,1,3.71-2.36,4.55,4.55,0,0,1,3.83,2.36,10.09,10.09,0,0,1,1.57,5.72q0,4.85-2.82,7.34a11.33,11.33,0,0,1,.6,2,12.1,12.1,0,0,1,.2,2.36Q486.12,220.17,483.14,222.41Zm-2.58,4.85q0-2.73-1.77-2.74T477,227.25q0,2.74,1.77,2.74T480.56,227.25Zm2-12.19q0-2.73-1.77-2.74T479,215.07q0,2.74,1.77,2.74T482.58,215.07Zm2-11.69q0-2.61-1.85-2.61-1.69,0-1.69,2.61,0,2.86,1.69,2.86Q484.59,206.24,484.59,203.38Z" />
    <path class="cls-4 cal" d="M502.48,209.35q-1.45,4.35-4.59,4.35a4.48,4.48,0,0,1-3.75-2.42,11.42,11.42,0,0,1,0-11.56,4.08,4.08,0,0,1,7.37-.19q1.53-4.23,4.67-4.23a4.49,4.49,0,0,1,3.75,2.36,10.33,10.33,0,0,1,1.57,5.84,9.69,9.69,0,0,1-2.09,6.47,10.4,10.4,0,0,1,2.09,6.71,10.19,10.19,0,0,1-2.09,6.59,9.7,9.7,0,0,1,2.09,6.47,10.19,10.19,0,0,1-2.09,6.59,11.41,11.41,0,0,1,0,13.18,10,10,0,0,1,2.09,6.47,9.89,9.89,0,0,1-2.09,6.59,10.2,10.2,0,0,1,2.09,6.59,10.39,10.39,0,0,1-1.57,5.78,4.48,4.48,0,0,1-3.75,2.42,4.57,4.57,0,0,1-3.79-2.42,10.19,10.19,0,0,1-1.61-5.78,10,10,0,0,1,2.18-6.59,9.36,9.36,0,0,1-2.18-6.59,9.76,9.76,0,0,1,2.18-6.47,9.36,9.36,0,0,1-2.18-6.59,9.65,9.65,0,0,1,2.18-6.59,10,10,0,0,1-2.18-6.59,9.47,9.47,0,0,1,2.18-6.47,10,10,0,0,1-2.18-6.59A10.14,10.14,0,0,1,503,210Zm-2.82-3.85q0-2.73-1.77-2.74t-1.77,2.74q0,2.74,1.77,2.74T499.66,205.5Zm8.3-2q0-2.73-1.77-2.74t-1.77,2.74q0,2.74,1.77,2.74T508,203.51Zm0,13.18q0-2.73-1.77-2.74t-1.77,2.74q0,2.61,1.77,2.61T508,216.69Zm0,13.06q0-2.73-1.77-2.74t-1.77,2.74q0,2.74,1.77,2.74T508,229.74Zm0,13.18q0-2.86-1.77-2.86t-1.77,2.86q0,2.74,1.77,2.74T508,242.92Zm-1.77,15.92q1.77,0,1.77-2.86,0-2.61-1.77-2.61T504.41,256Q504.41,258.84,506.19,258.84ZM508,269.16q0-2.73-1.77-2.74t-1.77,2.74q0,2.74,1.77,2.74T508,269.16Z" />
    <path class="cls-4 cal" d="M523.83,272a2.32,2.32,0,0,1-1.89-.56,5.46,5.46,0,0,1-1.29-1.8,9.82,9.82,0,0,1-.77-2.61,19.42,19.42,0,0,1-.24-3.11q0-.62.08-1.55t.24-2.05q-3.06-2.24-3.06-7.46,0-5,2.9-7.21-.24-1.12-.4-2.05a9.86,9.86,0,0,1-.16-1.68,10.56,10.56,0,0,1,1.21-5.1,5.64,5.64,0,0,1,3-2.86,7.05,7.05,0,0,1-.16-1.49v-1.74a3.82,3.82,0,0,1,0-.62,3.34,3.34,0,0,1,.12-.5,5.39,5.39,0,0,1-2.82-2.92,11.27,11.27,0,0,1-1.13-5,9.45,9.45,0,0,1,2-6.34,10.14,10.14,0,0,1-1.37-5.6,10,10,0,0,1,1.57-5.84,4.59,4.59,0,0,1,3.83-2.24c.54,0,.83,0,.89.12a10.33,10.33,0,0,1,1.73-5.41,4.46,4.46,0,0,1,3.67-2.3q2.18,0,3.79,2.61a4.19,4.19,0,0,1,7.41,0,9.92,9.92,0,0,1,1.61,5.47l1-.12a4.49,4.49,0,0,1,3.75,2.36A10.09,10.09,0,0,1,551,210.1a10.37,10.37,0,0,1-.81,4.35q2.58,2.49,2.58,7.09a10.63,10.63,0,0,1-1.29,5.28,5.31,5.31,0,0,1-3.14,2.8q.08.37.12.75a9.86,9.86,0,0,1,0,1,10.6,10.6,0,0,1-.32,2.86q3.54,1.86,3.55,7.83a12.52,12.52,0,0,1-.48,3.61q2.82,2.24,2.82,7.21,0,5.22-3,7.46a25.58,25.58,0,0,1,.4,3.11q.08,1.37.08,2.36a5.33,5.33,0,0,1-.44,1.87,8.33,8.33,0,0,1-1.17,2.05,7.93,7.93,0,0,1-1.69,1.62,3.44,3.44,0,0,1-2,.68,1.83,1.83,0,0,1-.89-.12,8.85,8.85,0,0,1-1.77,4.91,4.4,4.4,0,0,1-3.46,1.93q-3.14,0-4.59-4.1-1.61,4.1-4.67,4.1a4.23,4.23,0,0,1-3.34-1.93,10.06,10.06,0,0,1-1.89-4.91Zm.24-19.15q0-2.73-1.85-2.74-1.69,0-1.69,2.74t1.69,2.74Q524.08,255.6,524.08,252.87Zm.56-8.21q1.69,0,1.69-2.74t-1.69-2.74q-1.85,0-1.85,2.74T524.64,244.66Zm.16,21.88q1.69,0,1.69-2.74t-1.69-2.74q-1.85,0-1.85,2.86Q522.95,266.55,524.8,266.55Zm1.77-44.39a5.43,5.43,0,0,0-.52-2.18q-.52-1.18-1-1.18-2,0-2,2.86t1.85,2.74Q526.57,224.4,526.58,222.16Zm.64-12.43q0-2.73-1.77-2.74t-1.77,2.74q0,2.74,1.77,2.74T527.22,209.72Zm3.14,21.88q0-2.73-1.77-2.74t-1.77,2.74q0,2.86,1.69,2.86Q530.36,234.47,530.36,231.61ZM541,262.32q.64-4.1,2.9-5.84a11.78,11.78,0,0,1-.48-3.61,16.89,16.89,0,0,1,.56-3.61q-2.9-2.24-2.9-7.34a11.32,11.32,0,0,1,.4-2.61l-.89-.62q-1.61,4.73-4.92,4.73-3.14,0-4.59-4.48l-.69.44a2.63,2.63,0,0,1-.68.31,9.52,9.52,0,0,1,.24,2.24q0,5.1-2.9,7.34a17,17,0,0,1,.56,3.61,9.62,9.62,0,0,1-.56,3.61,8.26,8.26,0,0,1,2.9,5.84h1.37a2.5,2.5,0,0,1,2.3,1.06,19.7,19.7,0,0,1,1.89,3q1.53-4.1,4.51-4.1Zm1.21-38.92a9.87,9.87,0,0,0,0-1,9.56,9.56,0,0,1,0-1,11.78,11.78,0,0,1,.81-4.23,9.31,9.31,0,0,1-2.58-6.47,2.39,2.39,0,0,1-1,.12q-2.34,0-3.87-2.61a4.72,4.72,0,0,1-3.71,2.24,2.39,2.39,0,0,1-1-.12,8.92,8.92,0,0,1-1.93,5.84,13.84,13.84,0,0,1,1.29,6,8.46,8.46,0,0,1-.08,1.62,6.7,6.7,0,0,1,3.3,4.1,4.13,4.13,0,0,1,2.5-1,4.31,4.31,0,0,1,2.66,1Q539.63,224.15,542.21,223.4Zm-9.59,47.12q0-2.73-1.77-2.74t-1.77,2.74q0,2.74,1.77,2.74T532.62,270.53Zm.89-68.14q0-2.86-1.69-2.86-1.85,0-1.85,2.74t1.85,2.74Q533.51,205,533.5,202.39Zm4.11,32.7q0-2.73-1.85-2.74-1.69,0-1.69,2.74t1.61,2.74Q537.62,237.82,537.62,235.09Zm3.55-32.45q0-2.73-1.85-2.74-1.69,0-1.69,2.74t1.69,2.74Q541.16,205.37,541.16,202.64Zm.81,67.89q0-2.73-1.85-2.74-1.69,0-1.69,2.74t1.69,2.74Q542,273.26,542,270.53Zm3-39q0-2.61-1.85-2.61-1.69,0-1.69,2.61,0,2.86,1.69,2.86Q544.95,234.34,544.95,231.48Zm2.5-21.39q-.16-2.61-1.77-2.61-1.77,0-1.77,2.61,0,2.86,1.77,2.86T547.45,210.1Zm.56,53.84q0-2.86-1.77-2.86t-1.77,2.74q0,2.74,1.77,2.74T548,263.94Zm.16-22q0-2.73-1.77-2.74t-1.77,2.74q0,2.74,1.77,2.74T548.17,241.93Zm1-20.39q.08-2.61-1.77-2.61t-1.77,2.49q0,3,1.77,3T549.22,221.54Zm1.29,31.33q0-2.73-1.77-2.74T547,252.87q0,2.74,1.77,2.74T550.51,252.87Z" />
</svg>